PathFileType	4	(x/y/z)	S10_M20_T34
DataRate	CameraRate	NumFrames	NumMarkers	Units	OrigDataRate	OrigDataStartFrame	OrigNumFrames
240	240	11	51	mm	240	468	534
Frame#	Time	Sternum			R.Acromium			L.Acromium			Top.Head			R.ASIS			L.ASIS			R.PSIS			L.PSIS			R.Great.Tro			L.Great.Tro			R.Iliac.Crest			L.Iliac.Crest			V.Sacral			R.Thigh.Upper.Post			R.Thigh.Lower.Ant			R.Thigh.Lower.Post			R.Thigh.Upper.Ant			R.Knee.Lat			R.Knee.Med			R.Shank.Upper.Post			R.Shank.Lower.Ant			R.Shank.Lower.Post			R.Shank.Upper.Ant			R.Ankle.Lat			R.Ankle.Med			R.Heel.Upper			R.Heel.Med			R.Heel.Lat			R.Toe.Lat			R.Toe.Med			R.Toe.Tip			L.Thigh.Upper.Post			L.Thigh.Lower.Ant			L.Thigh.Lower.Post			L.Thigh.Upper.Ant			L.Knee.Lat			L.Knee.Med			L.Shank.Upper.Post			L.Shank.Lower.Ant			L.Shank.Lower.Post			L.Shank.Upper.Ant			L.Ankle.Lat			L.Ankle.Med			L.Heel.Upper			L.Heel.Med			L.Heel.Lat			L.Toe.Lat			L.Toe.Med			L.Toe.Tip			Cervical.Spine			Back			
		X1	Y1	Z1	X2	Y2	Z2	X3	Y3	Z3	X4	Y4	Z4	X5	Y5	Z5	X6	Y6	Z6	X7	Y7	Z7	X8	Y8	Z8	X9	Y9	Z9	X10	Y10	Z10	X11	Y11	Z11	X12	Y12	Z12	X13	Y13	Z13	X14	Y14	Z14	X15	Y15	Z15	X16	Y16	Z16	X17	Y17	Z17	X18	Y18	Z18	X19	Y19	Z19	X20	Y20	Z20	X21	Y21	Z21	X22	Y22	Z22	X23	Y23	Z23	X24	Y24	Z24	X25	Y25	Z25	X26	Y26	Z26	X27	Y27	Z27	X28	Y28	Z28	X29	Y29	Z29	X30	Y30	Z30	X31	Y31	Z31	X32	Y32	Z32	X33	Y33	Z33	X34	Y34	Z34	X35	Y35	Z35	X36	Y36	Z36	X37	Y37	Z37	X38	Y38	Z38	X39	Y39	Z39	X40	Y40	Z40	X41	Y41	Z41	X42	Y42	Z42	X43	Y43	Z43	X44	Y44	Z44	X45	Y45	Z45	X46	Y46	Z46	X47	Y47	Z47	X48	Y48	Z48	X49	Y49	Z49	X50	Y50	Z50	X51	Y51	Z51	

468	1.9458	1666.7	1269.3	288.14	1528	1419.8	433.31	1566.8	1453.5	130.18	1497.2	1735.5	304.93	1619.9	1000.3	384.18	1615.3	1016.6	153.43	1418.2	1020.7	303.61	1420.2	1029.9	221.47	1556.3	919.71	459.95	1547.8	952.95	93.679	1523.4	1079.2	432.53	1546.6	1092.1	127.29	1394.6	992.19	264.58	1650.2	734.22	470.97	1735.2	689.68	435.34	1686.7	652.22	466.96	1699.2	773.6	434.18	1745.5	538.72	432.17	1744.8	533.38	303.12	1739.9	309.41	447.91	1820.6	267.13	442.71	1762.7	238.53	448.57	1803	342.31	442.19	1814.6	131.36	439.52	1834.8	141.88	362.78	1782.2	65.542	389.78	1802.6	42.74	363.51	1790.8	44.449	424.56	1949.9	93.035	484.87	1982.4	110.68	381.36	2025.9	148.24	427.49	1456.1	694.06	103.37	1507.3	599.56	131.93	1435	603.13	124.9	1535.3	685.23	110.47	1452.3	507.9	138.69	1454.1	507.28	266.78	1345.8	308.13	140.51	1391.6	210.43	168	1332.8	233.26	154.4	1405.1	285.35	154.22	1335.3	108.73	172.52	1339.6	122	262.26	1258.5	81.976	218	1266.2	48.384	249.42	1263.6	53.247	183.53	1441.2	41.72	154.81	1465.7	42.443	262.68	1522.9	52.166	219.11	1468.3	1488.7	283.86	1387.8	1280.4	258.28
469	1.95	1671.5	1268.2	288.53	1532.7	1418.7	433.78	1571.9	1452.6	130.73	1502.1	1734.4	305.6	1624.9	999.33	384.27	1619.9	1015.7	153.55	1423.1	1019.8	304.01	1424.9	1029.1	221.87	1561.2	918.68	460.09	1552	952.17	93.808	1528.4	1078.2	432.79	1551.3	1091.3	127.67	1399.3	991.37	265.01	1654.3	732.73	471.15	1739.4	688.14	435.68	1690.7	650.67	467	1703.5	772.13	434.62	1750.1	537.62	432.07	1749.6	532.04	302.98	1749.5	308.33	448.24	1831.1	267.93	443	1773.9	237.96	448.94	1811.8	342.71	442.44	1828.3	131.95	440.02	1848.2	142.89	363.3	1797.3	65.396	390.38	1818.1	43.14	364.11	1806.4	44.533	425.11	1964.6	96.538	485.26	1996.5	114.97	381.66	2039.3	153.34	427.77	1458.7	693.97	103.2	1509.4	599.11	131.6	1437.1	603.16	124.67	1537.9	684.65	110.21	1453.8	507.75	138.42	1456	507	266.51	1346.6	308.34	140.41	1392.1	210.49	167.84	1333.3	233.54	154.33	1405.9	285.36	154.01	1335.5	108.84	172.53	1339.9	122.24	262.25	1258.6	82.176	218.13	1266.3	48.532	249.5	1263.7	53.495	183.62	1441.2	41.678	154.77	1465.8	42.391	262.61	1523	52.007	219.06	1473.3	1487.8	284.29	1392.6	1279.5	258.64
470	1.9542	1676.4	1267.2	288.93	1537.6	1417.7	434.27	1577	1451.7	131.28	1507.1	1733.3	306.28	1630	998.33	384.36	1624.5	1014.8	153.66	1428	1018.9	304.43	1429.6	1028.2	222.29	1566.2	917.64	460.23	1556.3	951.37	93.932	1533.5	1077.2	433.06	1556.1	1090.4	128.05	1404.1	990.54	265.45	1658.5	731.22	471.33	1743.6	686.56	436	1694.7	649.1	467.05	1707.9	770.62	435.04	1754.6	536.48	431.99	1754.2	530.65	302.87	1759	307.31	448.54	1841.5	268.77	443.26	1784.9	237.46	449.28	1820.4	343.13	442.68	1841.7	132.66	440.45	1861.5	144.02	363.75	1812.2	65.425	390.9	1833.5	43.714	364.62	1821.9	44.789	425.57	1979	100.14	485.61	2010.4	119.37	381.93	2052.4	158.51	428.04	1461.3	693.87	103.05	1511.6	598.66	131.29	1439.2	603.18	124.47	1540.5	684.06	109.96	1455.3	507.6	138.16	1457.8	506.73	266.25	1347.4	308.57	140.33	1392.6	210.55	167.68	1333.9	233.83	154.28	1406.7	285.38	153.8	1335.7	108.96	172.55	1340.2	122.48	262.25	1258.8	82.393	218.26	1266.4	48.697	249.58	1263.8	53.759	183.7	1441.2	41.638	154.74	1465.8	42.336	262.55	1523	51.844	219.02	1478.4	1486.8	284.74	1397.5	1278.6	259.03
471	1.9583	1681.2	1266.1	289.33	1542.4	1416.6	434.77	1582.1	1450.7	131.84	1512.1	1732.3	306.98	1635	997.31	384.43	1629.2	1013.8	153.76	1433	1018	304.85	1434.3	1027.4	222.72	1571.1	916.59	460.38	1560.6	950.56	94.052	1538.6	1076.2	433.33	1560.8	1089.6	128.42	1408.9	989.69	265.91	1662.8	729.71	471.51	1747.9	684.94	436.31	1698.8	647.51	467.13	1712.3	769.07	435.43	1759.2	535.3	431.93	1758.9	529.23	302.77	1768.3	306.33	448.81	1851.7	269.66	443.49	1795.8	237.04	449.57	1829	343.56	442.91	1855	133.48	440.82	1874.5	145.26	364.15	1826.9	65.618	391.33	1848.7	44.453	365.03	1837.1	45.205	425.95	1993.1	103.82	485.91	2023.9	123.85	382.16	2065.2	163.72	428.29	1464	693.76	102.92	1513.8	598.2	131	1441.3	603.2	124.3	1543.1	683.46	109.73	1456.9	507.45	137.93	1459.7	506.45	266.02	1348.3	308.81	140.26	1393.2	210.62	167.53	1334.5	234.13	154.23	1407.5	285.41	153.61	1335.9	109.09	172.58	1340.6	122.72	262.25	1258.9	82.629	218.4	1266.4	48.881	249.67	1263.9	54.04	183.79	1441.2	41.599	154.71	1465.9	42.277	262.5	1523.1	51.677	218.97	1483.4	1485.8	285.21	1402.4	1277.7	259.44
472	1.9625	1686.1	1265	289.72	1547.3	1415.6	435.28	1587.3	1449.7	132.41	1517.1	1731.2	307.68	1640.1	996.26	384.49	1633.8	1012.9	153.85	1437.9	1017	305.29	1439.1	1026.5	223.16	1576.2	915.52	460.53	1564.9	949.72	94.169	1543.7	1075.1	433.61	1565.6	1088.7	128.77	1413.7	988.81	266.37	1667.1	728.2	471.7	1752.2	683.27	436.6	1702.9	645.9	467.21	1716.8	767.5	435.78	1763.7	534.11	431.9	1763.5	527.77	302.69	1777.6	305.41	449.05	1861.8	270.58	443.69	1806.6	236.69	449.81	1837.4	344	443.13	1868.1	134.4	441.14	1887.4	146.62	364.49	1841.4	65.966	391.68	1863.6	45.343	365.36	1852.1	45.768	426.24	2006.9	107.56	486.16	2037.1	128.39	382.36	2077.7	168.95	428.53	1466.7	693.64	102.81	1516	597.74	130.73	1443.5	603.21	124.16	1545.8	682.86	109.51	1458.5	507.3	137.73	1461.7	506.18	265.81	1349.1	309.07	140.21	1393.7	210.69	167.4	1335.1	234.44	154.2	1408.4	285.43	153.43	1336.2	109.25	172.62	1340.9	122.98	262.26	1259	82.888	218.54	1266.5	49.087	249.76	1264	54.341	183.88	1441.3	41.561	154.68	1465.9	42.215	262.46	1523.2	51.506	218.92	1488.4	1484.8	285.69	1407.3	1276.7	259.89
473	1.9667	1691.1	1263.9	290.12	1552.2	1414.5	435.81	1592.4	1448.7	132.98	1522.2	1730	308.4	1645.3	995.19	384.54	1638.4	1011.9	153.94	1442.9	1016	305.73	1443.9	1025.5	223.63	1581.3	914.44	460.68	1569.2	948.86	94.286	1548.9	1074	433.9	1570.3	1087.8	129.12	1418.5	987.92	266.84	1671.5	726.7	471.89	1756.5	681.58	436.86	1707.1	644.3	467.31	1721.4	765.92	436.1	1768.3	532.9	431.88	1768	526.29	302.64	1786.8	304.53	449.26	1871.7	271.52	443.87	1817.2	236.4	450.01	1845.7	344.45	443.34	1880.9	135.4	441.39	1900	148.06	364.78	1855.6	66.456	391.94	1878.2	46.371	365.6	1866.8	46.464	426.44	2020.4	111.33	486.37	2050.1	132.96	382.52	2089.9	174.19	428.75	1469.5	693.51	102.72	1518.3	597.27	130.48	1445.8	603.21	124.04	1548.5	682.24	109.31	1460.2	507.15	137.54	1463.7	505.91	265.62	1350	309.33	140.17	1394.3	210.77	167.27	1335.7	234.76	154.18	1409.2	285.46	153.27	1336.4	109.43	172.66	1341.3	123.24	262.27	1259.2	83.171	218.68	1266.6	49.318	249.85	1264.1	54.663	183.97	1441.3	41.525	154.65	1465.9	42.151	262.43	1523.3	51.331	218.87	1493.5	1483.8	286.18	1412.2	1275.8	260.37
474	1.9708	1696	1262.7	290.51	1557.2	1413.4	436.35	1597.6	1447.6	133.55	1527.2	1728.9	309.13	1650.4	994.1	384.58	1643.1	1010.9	154.01	1447.9	1015.1	306.19	1448.7	1024.6	224.1	1586.5	913.34	460.84	1573.5	947.99	94.403	1554.1	1072.9	434.19	1575	1086.8	129.46	1423.4	987.01	267.33	1676	725.2	472.07	1760.9	679.87	437.09	1711.3	642.69	467.43	1726.1	764.31	436.39	1772.8	531.67	431.89	1772.5	524.8	302.6	1795.8	303.7	449.44	1881.4	272.49	444.03	1827.6	236.17	450.16	1853.9	344.89	443.54	1893.4	136.47	441.59	1912.3	149.58	365.02	1869.6	67.072	392.13	1892.6	47.521	365.76	1881.2	47.277	426.57	2033.6	115.12	486.53	2062.7	137.56	382.64	2101.8	179.4	428.95	1472.3	693.37	102.65	1520.6	596.8	130.26	1448.1	603.2	123.96	1551.3	681.62	109.12	1461.9	507	137.38	1465.7	505.63	265.45	1350.9	309.61	140.15	1394.8	210.86	167.15	1336.4	235.09	154.17	1410.1	285.5	153.11	1336.6	109.64	172.72	1341.6	123.52	262.29	1259.3	83.482	218.82	1266.7	49.578	249.94	1264.2	55.008	184.07	1441.4	41.491	154.62	1465.9	42.086	262.4	1523.4	51.152	218.81	1498.6	1482.8	286.69	1417.2	1274.8	260.88
475	1.975	1701	1261.6	290.9	1562.2	1412.2	436.9	1602.7	1446.5	134.13	1532.3	1727.7	309.88	1655.6	993	384.62	1647.7	1009.8	154.07	1452.9	1014.1	306.67	1453.5	1023.7	224.6	1591.7	912.23	461	1577.8	947.09	94.522	1559.4	1071.8	434.49	1579.8	1085.9	129.8	1428.2	986.08	267.84	1680.6	723.71	472.25	1765.4	678.15	437.3	1715.6	641.09	467.55	1730.8	762.7	436.63	1777.4	530.43	431.92	1777	523.31	302.59	1804.7	302.9	449.58	1891	273.46	444.17	1837.8	235.99	450.28	1861.9	345.32	443.73	1905.8	137.61	441.73	1924.5	151.16	365.21	1883.3	67.8	392.24	1906.7	48.776	365.83	1895.4	48.188	426.62	2046.5	118.89	486.64	2075.1	142.14	382.73	2113.4	184.57	429.14	1475.1	693.22	102.6	1522.9	596.32	130.06	1450.4	603.19	123.9	1554.1	680.99	108.95	1463.6	506.85	137.24	1467.8	505.36	265.3	1351.9	309.91	140.14	1395.4	210.96	167.04	1337.1	235.43	154.18	1411	285.54	152.97	1336.8	109.88	172.78	1342	123.8	262.32	1259.5	83.824	218.95	1266.8	49.869	250.03	1264.3	55.378	184.16	1441.4	41.458	154.59	1465.9	42.022	262.38	1523.5	50.968	218.76	1503.7	1481.8	287.21	1422.2	1273.8	261.41
476	1.9792	1706	1260.4	291.29	1567.3	1411.1	437.47	1607.8	1445.4	134.71	1537.3	1726.6	310.64	1660.8	991.87	384.64	1652.4	1008.8	154.13	1457.9	1013	307.15	1458.4	1022.7	225.12	1597	911.1	461.17	1582.1	946.19	94.645	1564.6	1070.6	434.79	1584.5	1084.9	130.12	1433.1	985.15	268.35	1685.2	722.25	472.43	1769.9	676.42	437.47	1720	639.51	467.67	1735.6	761.1	436.83	1782	529.2	431.96	1781.5	521.82	302.59	1813.5	302.15	449.7	1900.4	274.44	444.29	1847.9	235.84	450.36	1869.9	345.73	443.9	1917.8	138.78	441.83	1936.4	152.78	365.35	1896.7	68.62	392.27	1920.5	50.117	365.84	1909.3	49.18	426.6	2059.1	122.63	486.71	2087.1	146.69	382.78	2124.7	189.66	429.31	1477.9	693.06	102.57	1525.3	595.84	129.88	1452.8	603.18	123.88	1556.9	680.36	108.8	1465.4	506.7	137.12	1469.9	505.08	265.17	1352.8	310.22	140.15	1396	211.07	166.94	1337.8	235.79	154.21	1411.9	285.59	152.85	1337	110.14	172.86	1342.4	124.09	262.36	1259.7	84.199	219.08	1267	50.196	250.13	1264.4	55.777	184.25	1441.4	41.427	154.57	1465.9	41.959	262.36	1523.6	50.78	218.7	1508.9	1480.8	287.75	1427.2	1272.8	261.97
477	1.9833	1711	1259.2	291.67	1572.4	1410	438.05	1613	1444.3	135.3	1542.4	1725.4	311.41	1666	990.73	384.66	1657	1007.8	154.19	1463	1012	307.65	1463.3	1021.7	225.66	1602.3	909.96	461.35	1586.4	945.27	94.774	1569.9	1069.5	435.09	1589.2	1083.9	130.45	1438	984.19	268.89	1690	720.81	472.6	1774.5	674.7	437.6	1724.5	637.95	467.8	1740.5	759.5	436.99	1786.7	527.97	432.02	1786	520.33	302.61	1822.1	301.43	449.78	1909.6	275.4	444.39	1857.8	235.73	450.4	1877.7	346.12	444.06	1929.6	139.98	441.88	1948	154.44	365.45	1909.8	69.512	392.24	1934	51.523	365.77	1922.8	50.233	426.51	2071.4	126.31	486.74	2098.8	151.18	382.8	2135.7	194.65	429.46	1480.8	692.9	102.57	1527.8	595.35	129.72	1455.2	603.16	123.88	1559.8	679.72	108.67	1467.2	506.55	137.02	1472.1	504.79	265.06	1353.8	310.55	140.18	1396.6	211.19	166.86	1338.5	236.16	154.25	1412.9	285.65	152.73	1337.1	110.45	172.95	1342.8	124.4	262.4	1259.9	84.61	219.21	1267.1	50.56	250.22	1264.5	56.205	184.35	1441.5	41.397	154.54	1465.9	41.9	262.34	1523.7	50.587	218.64	1514.1	1479.7	288.3	1432.2	1271.8	262.56
478	1.9875	1716	1258	292.05	1577.5	1408.8	438.64	1618.2	1443.1	135.89	1547.6	1724.2	312.19	1671.2	989.56	384.67	1661.7	1006.7	154.24	1468.1	1010.9	308.17	1468.3	1020.7	226.22	1607.7	908.8	461.53	1590.8	944.34	94.91	1575.2	1068.3	435.41	1593.9	1082.9	130.77	1443	983.23	269.44	1694.9	719.4	472.77	1779.2	673	437.7	1729.1	636.41	467.94	1745.5	757.92	437.11	1791.4	526.75	432.1	1790.5	518.87	302.65	1830.6	300.75	449.84	1918.6	276.34	444.47	1867.4	235.65	450.41	1885.4	346.49	444.2	1941.1	141.18	441.89	1959.3	156.09	365.52	1922.6	70.458	392.15	1947.2	52.972	365.65	1936.1	51.326	426.36	2083.3	129.9	486.72	2110.2	155.58	382.79	2146.4	199.52	429.59	1483.7	692.73	102.58	1530.3	594.87	129.58	1457.7	603.13	123.91	1562.7	679.07	108.56	1469.1	506.4	136.95	1474.4	504.51	264.98	1354.9	310.89	140.23	1397.3	211.33	166.78	1339.2	236.54	154.31	1413.9	285.72	152.64	1337.2	110.79	173.06	1343.3	124.72	262.45	1260.1	85.058	219.33	1267.2	50.965	250.32	1264.6	56.665	184.44	1441.5	41.369	154.52	1465.9	41.847	262.33	1523.8	50.389	218.57	1519.3	1478.7	288.86	1437.2	1270.7	263.16
